<svg xmlns="http://www.w3.org/2000/svg" width="140.927" height="42" viewBox="0 0 140.927 42"><path d="M30.261,12.146a2.012,2.012,0,0,0,1.463-1.171A11.718,11.718,0,0,1,54.115,15.8a17.941,17.941,0,0,1-.293,2.488v.366A2.114,2.114,0,0,0,55.5,20.707c2.268.293,2.341,1.317,2.707,2.78a4.92,4.92,0,0,1,2.415-.8,3.579,3.579,0,0,1,1.683.512s.366-3.732-4.171-5.927a10.359,10.359,0,0,0,.073-1.39A15.74,15.74,0,0,0,42.48,0,15.929,15.929,0,0,0,29.31,7.1a10.684,10.684,0,0,0-5.634-1.537A11.008,11.008,0,0,0,12.7,16.537a8.973,8.973,0,0,1,2.2-.293,6.734,6.734,0,0,1,1.9.293,6.792,6.792,0,0,1,6.8-6.8,7,7,0,0,1,4.829,1.976,2.043,2.043,0,0,0,1.463.585A1.236,1.236,0,0,1,30.261,12.146Z" transform="translate(-3.407)" fill="#fff"/><path d="M15.878,43.3a4.215,4.215,0,0,0-1.61.512,7.98,7.98,0,0,1-3.439.878C7.171,44.466,5.2,42.124,4.9,37.807c.22-4.537,2.2-6.878,5.927-7.1a10.415,10.415,0,0,1,3.293.585,5.446,5.446,0,0,0,1.61.366c1.171-.073,1.756-.8,1.829-2.122-.146-2.049-2.415-3.22-6.732-3.439C4.1,26.612.512,30.49,0,37.661c.512,7.1,4.1,10.9,10.829,11.341,4.683-.073,7.024-1.244,7.1-3.439C17.78,44.173,17.049,43.368,15.878,43.3Z" transform="translate(0 -7.002)" fill="#fff"/><path d="M29.4,24.1c-1.39.073-2.122.878-2.2,2.488v19.39c.073,1.537.8,2.341,2.2,2.341a2.153,2.153,0,0,0,2.341-2.341V26.588A2.269,2.269,0,0,0,29.4,24.1Z" transform="translate(-7.298 -6.466)" fill="#fff"/><path d="M43.922,33.8c-4.9.439-7.61,3.293-8.122,8.707.293,5.415,3,8.268,8.122,8.488,5.049-.22,7.756-3.073,8.122-8.488C51.532,37.166,48.824,34.239,43.922,33.8Zm0,13.317c-2.2-.146-3.366-1.683-3.585-4.537.146-2.854,1.317-4.39,3.585-4.537,2.2.146,3.366,1.683,3.585,4.537C47.288,45.434,46.117,46.971,43.922,47.117Z" transform="translate(-9.605 -9.068)" fill="#fff"/><path d="M73.185,34c-1.39.073-2.122.951-2.2,2.561v8.122c-.073,1.756-1.1,2.634-2.927,2.854-1.9-.146-2.854-1.1-2.927-2.854V36.561c-.073-1.61-.8-2.488-2.2-2.561A2.33,2.33,0,0,0,60.6,36.561v8.122q.22,6.256,7.463,6.366,7.244-.11,7.463-6.366V36.561C75.38,34.951,74.649,34.073,73.185,34Z" transform="translate(-16.259 -9.122)" fill="#fff"/><path d="M97.4,24.1c-1.39.073-2.122.878-2.2,2.488v6.22A5.967,5.967,0,0,0,90.89,31.2c-4.537.293-6.951,3.293-7.39,9,.439,5.2,2.927,7.9,7.463,8.268a5.121,5.121,0,0,0,4.171-1.829,1.986,1.986,0,0,0,2.2,1.756c1.39,0,2.122-.8,2.2-2.341V26.588C99.524,24.978,98.793,24.173,97.4,24.1Zm-5.78,20.415c-2.2-.146-3.366-1.683-3.585-4.537.146-2.854,1.317-4.39,3.585-4.537,2.2.146,3.366,1.61,3.585,4.39C94.988,42.759,93.817,44.368,91.622,44.515Z" transform="translate(-22.402 -6.466)" fill="#fff"/><g transform="translate(78.439 18.146)"><path d="M119.346,34c-.878,0-1.537.512-1.976,1.61l-2.927,9-2.927-9A1.893,1.893,0,0,0,109.541,34a2.154,2.154,0,0,0-2.341,2.2,3.545,3.545,0,0,0,.22,1.317l4.537,11.707a2.3,2.3,0,0,0,2.488,1.756,2.207,2.207,0,0,0,2.488-1.756l4.537-11.707c.073-.146.146-.22.146-.146a4.459,4.459,0,0,0,.22-1.244A2.27,2.27,0,0,0,119.346,34Z" transform="translate(-107.2 -27.268)" fill="rgba(255,255,255,0.7)"/><path d="M130.788,24.8a2.564,2.564,0,0,0-2.488,2.488,2.53,2.53,0,0,0,2.488,2.561,2.5,2.5,0,0,0,2.561-2.561A2.53,2.53,0,0,0,130.788,24.8Z" transform="translate(-112.861 -24.8)" fill="rgba(255,255,255,0.7)"/><path d="M130.9,34c-1.39.073-2.122.951-2.2,2.561V48.634c.073,1.537.8,2.341,2.2,2.341a2.154,2.154,0,0,0,2.342-2.341V36.561A2.33,2.33,0,0,0,130.9,34Z" transform="translate(-112.968 -27.268)" fill="rgba(255,255,255,0.7)"/><path d="M153.144,42.068c-.659-5.049-3.366-7.829-8.122-8.268-4.9.439-7.61,3.293-8.122,8.707.293,5.415,3.146,8.268,8.488,8.488,4.317-.22,6.8-1.463,7.39-3.585a2.052,2.052,0,0,0-1.829-1.976,4.515,4.515,0,0,0-1.756.732,7.955,7.955,0,0,1-3.439,1.1c-2.488-.073-3.878-1.171-4.317-3.293h9.732A1.668,1.668,0,0,0,153.144,42.068Zm-11.854-.951c.439-2.268,1.61-3.512,3.659-3.585,2.049.073,3.219,1.244,3.585,3.585Z" transform="translate(-115.168 -27.215)" fill="rgba(255,255,255,0.7)"/><path d="M181.532,34c-1.1,0-1.756.585-2.122,1.829L176.7,44.463,174,35.976Q173.337,34,171.8,34a2.281,2.281,0,0,0-2.341,1.976l-2.707,8.488-2.561-8.634A2.257,2.257,0,0,0,162,34c-1.39.073-2.122.732-2.2,1.829a5.813,5.813,0,0,0,.512,2.2l3.8,10.829a2.773,2.773,0,0,0,2.707,2.122A2.356,2.356,0,0,0,169.385,49l2.341-7.244h.146L174.215,49a2.5,2.5,0,0,0,2.561,1.976,2.773,2.773,0,0,0,2.707-2.122l3.951-10.9A6.809,6.809,0,0,0,183.8,36.2,2.173,2.173,0,0,0,181.532,34Z" transform="translate(-121.312 -27.268)" fill="rgba(255,255,255,0.7)"/></g></svg>