<?xml version="1.0" encoding="utf-8"?>
<!-- Generator: Adobe Illustrator 23.0.3, SVG Export Plug-In . SVG Version: 6.00 Build 0)  -->
<svg version="1.1" id="图层_1" xmlns="http://www.w3.org/2000/svg" xmlns:xlink="http://www.w3.org/1999/xlink" x="0px" y="0px"
	 viewBox="0 0 200 40" style="enable-background:new 0 0 200 40;" xml:space="preserve">
<style type="text/css">
	.st0{fill:#B01F24;}
	.st1{fill:#FFFFFF;}
</style>
<title>operation-logo</title>
<path class="st0" d="M33.1,14.3c-0.5-1.6-1.8-2.8-3.4-3.4c-3.7-1.2-7.7-1.2-11.4,0c-1.6,0.5-2.8,1.8-3.4,3.4
	c-1.2,3.7-1.2,7.7,0,11.4c0.5,1.6,1.8,2.8,3.4,3.4c3.7,1.2,7.7,1.2,11.4,0c1.6-0.5,2.8-1.8,3.4-3.4C34.3,22,34.3,18,33.1,14.3z"/>
<path class="st1" d="M25.7,18.8c-2.6,0-3.7,0.1-3.7-1.3c-0.1-1,0.7-1.9,1.7-2c0.1,0,0.3,0,0.4,0h5.7l-1.4-2.3h-5.3
	c-1.9,0-4,0.9-4,3.6s0.6,4.2,4.3,4.2c1.8,0,3.5,0,3.5,1.6s-0.9,1.8-1.8,1.8h-6.8l1.5,2.4h5.2c1.1,0,5,0.3,5-4.3
	C29.8,20.1,28.6,18.8,25.7,18.8z"/>
<g>
	<path class="st1" d="M44,14.5L43.7,14h5.5l-1.7,12.3h-5.1L44,14.5z M45.8,24.5l0.5-3.6h-1.2l-0.5,3.6H45.8z M45.3,19h1.2l0.5-3.2
		h-1.2L45.3,19z M52.2,17.7l0.1-0.7h-3.1l0.5-3.6h9.9L59.1,17h-4.1L55,17.7h1.7l0.2-0.4h2.2l-1.2,2.2h0.9L58.5,21h-5L53,21.7h5.2
		l-0.7,5.1h-8.7l0.5-3.2h-1.1l2.1-2.5h-1.7l0.2-1.4H52l0.1-0.6h-2.5l0.2-1.3H52.2z M52.3,15.7l0.1-0.9h-0.8l-0.1,0.9H52.3z
		 M55.3,25.3l0.1-0.4h-3.7l-0.1,0.4H55.3z M51.8,23.8h3.7l0.1-0.5h-3.7L51.8,23.8z M54,15.7h1l0.1-0.9h-1L54,15.7z M54.7,19.6h1
		l0.3-0.6h-1.2L54.7,19.6z M56.8,14.7l-0.1,0.9h0.7l0.1-0.9H56.8z"/>
	<path class="st1" d="M67.4,19.1l0.7-5.2l-0.6-0.7h4.3L71,19.1h5.4l-0.2,1.8H74l-0.5,3.6h1.8l0.8-0.7l-0.4,2.8l-6.2,0l0.8-5.8h-3.3
		l-3.3,5.8h-3.6l3.3-5.8H61l0.2-1.8H67.4z M66.8,18.6h-3.1l-0.6-4l-0.5-0.5h3.5L66.8,18.6z M73.5,14.6L73,14.1h3.8l-1.9,4.5h-3.1
		L73.5,14.6z"/>
	<path class="st1" d="M77.9,26.5l1-1.9l0.9-6.4h-0.7l0.3-1.8h4l-1.1,7.5l2.6,0.8h8.8l-0.2,1.8H83.3L81.5,26l-0.3,0.6H77.9z
		 M82.6,13.5l0.8,2.2h-2.9l-0.8-2.2H82.6z M92.6,20l0.5,4h-2.9l-0.1-0.5l-6.8,0.3l0.2-1.6l1.7-3.2h-1.7l0.2-1.8H94l-0.2,1.8h-4.8
		L87.3,22l2.6-0.1L89.7,20H92.6z M93.8,13.5l-0.2,1.8h-8.7l0.2-1.8H93.8z"/>
	<path class="st1" d="M100.4,26.1l-5.5,0.4l0.3-1.8l5.5-0.4L100.4,26.1z M96.2,17.4l2.5-3.8l-0.4-0.5h4l-2.8,4.2h2.2l-2.8,4.3h2.2
		l-0.3,1.8h-5.4l0.3-1.8l1.7-2.5h-1.3L96.2,17.4z M105.6,14.1L105.6,14.1l-0.1,0.9h1.8l0.2-1.1l-0.6-0.7h3.6l-0.2,1.8h1.8l-0.2,1.8
		h-1.8l-0.2,1.4h1.5L111,20h-1.5l-0.2,1.4h1.5l-0.3,1.8H109l-0.2,1.4h1.9l-0.3,1.9h-6.5l0,0.3H101l1.5-10.6l-0.7,0.2l0.3-2.2l3.8-1
		L105.6,14.1z M104.2,24.6h1.8l0.2-1.4h-1.8L104.2,24.6z M104.6,21.4h1.8l0.2-1.4h-1.8L104.6,21.4z M105.1,18.2h1.8l0.2-1.4h-1.8
		L105.1,18.2z"/>
	<path class="st1" d="M126.6,20l-0.4,2.9h-9l-0.1,0.5h9.4l-0.5,3.4h-13l1-6.8h-1.4l0.4-2.9h5.9l-0.1-0.5h4.2l0.1,0.5h5.8l-0.4,2.9
		H126.6z M117.8,13.9h3.6l-0.2,1.4h-1.5l0.6,1.1h-2.9l-0.5-1l-0.6,1h-3.2l1.6-2.8l-0.4-0.5h4L117.8,13.9z M116.3,19.5h8.7l0.1-0.5
		h-8.7L116.3,19.5z M116.9,24.9l-0.1,0.6h5.8l0.1-0.6H116.9z M117.5,20.9l-0.1,0.6h5.4l0.1-0.6H117.5z M125.4,13.9h3.9l-0.2,1.4
		h-1.8l0.6,1.1H125l-0.5-1l-0.6,1h-3.2l1.6-2.8l-0.4-0.5h4L125.4,13.9z"/>
	<path class="st1" d="M132,18.4l0.5-3.2h-0.9l0.2-1.7h5l-0.2,1.7h-1.1l-0.5,3.2h1.2l-0.3,1.9h-1.1l-0.5,3.6l1.1-0.2l-0.2,1.8
		l-5.2,0.9l0.2-1.8l1-0.2l0.6-4.2h-1l0.3-1.9H132z M139.4,21.8l0.2-1.1h-3.2l1-7.2h9.5l-1,7.2h-3.5l-0.2,1.1h3.5l-0.3,1.8h-3.4
		l-0.2,1.1h3.9l-0.2,1.8h-10.3l0.2-1.8h3.6l0.2-1.1H136l0.3-1.8H139.4z M139.8,19l0.2-1h-1.1l-0.1,1H139.8z M139.1,16.2h1.1l0.1-1
		h-1.1L139.1,16.2z M143.8,19l0.1-1h-1.1l-0.2,1H143.8z M143.3,15.2l-0.1,1h1l0.2-1H143.3z"/>
	<path class="st1" d="M150.5,26.2h-3.2l2.3-3.6h3.2L150.5,26.2z M164.3,15l-8.5,0.3l-1.4,1h9l-0.3,2h-7.5l-2.5,1.6h6.3l-0.1-0.7h3.6
		l0.3,2.9h-3.6l0-0.4h-2.1l-0.6,3.9c-0.1,0.4-0.2,0.7-0.5,0.9c-0.3,0.2-0.6,0.4-1,0.4h-3.8l1.7-1.8l0.5-3.4H149l0.2-1.8l2.7-1.6
		h-2.4l0.3-2l1.4-0.8l-2.1,0.1l0.3-2l15.2-0.4L164.3,15z M163.1,26.2h-3.2l-1.3-3.6h3.2L163.1,26.2z"/>
	<path class="st1" d="M170.4,26.5l-5.5,0.3l0.3-1.8l5.5-0.4L170.4,26.5z M166.2,17.9l2.5-3.9l-0.4-0.5h4l-2.8,4.3h2.2l-2.8,4.3h2.2
		l-0.2,1.8h-5.4l0.2-1.8l1.6-2.5h-1.3L166.2,17.9z M175.5,21.1l-1.8,5.4h-2.9l1.8-5.4H175.5z M180.7,17.5l0.6,3.2h-2.5l-0.1-0.3
		l-7.1,0.3l0.2-1.8l1.8-2.9h-1.8l0.3-1.8h3l0.1-0.4l-0.6-0.7h4.3l-0.2,1.1h3.1l-0.3,1.8h-4.3l-1.7,2.7l2.8-0.1l-0.2-1.1H180.7z
		 M179.1,21.1l-0.5,3.2h1.4l0.8-0.7l-0.4,2.9h-5.1l0.8-5.4H179.1z"/>
</g>
</svg>
