<?xml version="1.0" encoding="UTF-8"?>
<svg width="54px" height="70px" viewBox="0 0 54 70" version="1.1" xmlns="http://www.w3.org/2000/svg" xmlns:xlink="http://www.w3.org/1999/xlink">
    <title>22</title>
    <defs>
        <linearGradient x1="50%" y1="0%" x2="50%" y2="100%" id="linearGradient-1">
            <stop stop-color="#2C5DB3" offset="0%"></stop>
            <stop stop-color="#E9F0FC" offset="100%"></stop>
        </linearGradient>
    </defs>
    <g id="页面-1" stroke="none" stroke-width="1" fill="none" fill-rule="evenodd">
        <g id="2.svg" transform="translate(-423.000000, -208.000000)" fill-rule="nonzero">
            <g id="22" transform="translate(423.000000, 208.000000)">
                <path d="M27,37.5365 C41.91,37.5365 54,44.8033635 54,53.7685 C54,62.7336365 41.91,70.0005 27,70.0005 C12.09,70.0005 0,62.7336365 0,53.7685 C0,44.8033635 12.088,37.5365 27,37.5365 Z M27,40.58 C14.85,40.58 5,46.2612 5,53.26125 C5,58.2390633 9.98093827,62.5499619 17.2278804,64.625271 L17.913837,64.8132337 C20.6835556,65.5385036 23.76,65.9425 27,65.9425 C30.24,65.9425 33.3164444,65.5385036 36.086163,64.8132337 L36.7721196,64.625271 C44.0190617,62.5499619 49,58.2390633 49,53.26125 C49,46.2612 39.15,40.58 27,40.58 Z" id="形状" fill="#FFFFFF"></path>
                <path d="M44,52.754 C44,58.3570835 36.389,62.899 27,62.899 C17.611,62.899 10,58.3570835 10,52.754 C10,49.8676077 12.019753,47.2628203 15.2618579,45.4154742 L17.4185161,48.4779559 C15.9003534,49.6674275 15,51.1484938 15,52.754 C15,56.676057 20.373,59.8555 27,59.8555 C33.627,59.8555 39,56.676057 39,52.754 C39,51.0063154 37.933121,49.4060865 36.1638142,48.168925 L37.6705802,44.8558893 C41.530935,46.715579 44,49.5626643 44,52.754 Z" id="椭圆_5" fill="#0EE4FF"></path>
                <rect id="矩形_15" fill="url(#linearGradient-1)" x="26" y="0" width="2" height="50.725"></rect>
                <ellipse id="椭圆_6" fill="#FFFFFF" cx="27" cy="52.754" rx="6" ry="3.0435"></ellipse>
            </g>
        </g>
    </g>
</svg>